# xmcd
#
# Track frame offsets:
#	150
#	17374
#	33047
#	52629
#	70269
#	88681
#	104100
#	121850
#	138196
#	152217
#	168221
#	184709
#
# Disc length: 2651 seconds
#
# Revision: 6
# Processed by: cddbd v1.5.2PL0 Copyright (c) Steve Scherf et al.
# Submitted via: EasyCDDAExtractor 15.3.0.1
#
DISCID=8b0a590c
DTITLE=Anastacia - Heavy Rotation
DYEAR=2008
DGENRE=Pop
TTITLE0=I Can Feel You
TTITLE1=The Way I See It
TTITLE2=Absolutely Positively
TTITLE3=Defeated
TTITLE4=In Summer
TTITLE5=Heavy Rotation
TTITLE6=Same Song
TTITLE7=I Call It Love
TTITLE8=All Fall Down
TTITLE9=Never Gonna Love Again
TTITLE10=You'll Be Fine
TTITLE11=Beautiful Messed Up World (Bonus Track)
EXTD=
EXTT0=
EXTT1=
EXTT2=
EXTT3=
EXTT4=
EXTT5=
EXTT6=
EXTT7=
EXTT8=
EXTT9=
EXTT10=
EXTT11=
PLAYORDER=
